<?xml version="1.0" encoding="UTF-8" standalone="no"?>
<!-- Created with Inkscape (http://www.inkscape.org/) -->

<svg
   xmlns:dc="http://purl.org/dc/elements/1.1/"
   xmlns:cc="http://creativecommons.org/ns#"
   xmlns:rdf="http://www.w3.org/1999/02/22-rdf-syntax-ns#"
   xmlns:svg="http://www.w3.org/2000/svg"
   xmlns="http://www.w3.org/2000/svg"
   xmlns:sodipodi="http://sodipodi.sourceforge.net/DTD/sodipodi-0.dtd"
   xmlns:inkscape="http://www.inkscape.org/namespaces/inkscape"
   width="64px"
   height="64px"
   id="svg2985"
   version="1.1"
   inkscape:version="0.48.5 r10040"
   sodipodi:docname="New document 2">
  <defs
     id="defs2987" />
  <sodipodi:namedview
     id="base"
     pagecolor="#ffffff"
     bordercolor="#666666"
     borderopacity="1.0"
     inkscape:pageopacity="0.0"
     inkscape:pageshadow="2"
     inkscape:zoom="5.5"
     inkscape:cx="34.569938"
     inkscape:cy="32"
     inkscape:current-layer="layer1"
     showgrid="true"
     inkscape:document-units="px"
     inkscape:grid-bbox="true"
     inkscape:window-width="1060"
     inkscape:window-height="685"
     inkscape:window-x="20"
     inkscape:window-y="20"
     inkscape:window-maximized="0" />
  <metadata
     id="metadata2990">
    <rdf:RDF>
      <cc:Work
         rdf:about="">
        <dc:format>image/svg+xml</dc:format>
        <dc:type
           rdf:resource="http://purl.org/dc/dcmitype/StillImage" />
        <dc:title></dc:title>
      </cc:Work>
    </rdf:RDF>
  </metadata>
  <g
     id="layer1"
     inkscape:label="Layer 1"
     inkscape:groupmode="layer">
    <g
       id="g3099"
       style="fill:#ffffff;fill-opacity:1">
      <path
         style="fill:#ffffff;fill-opacity:1"
         d="M 28.247303,45.458561 C 39.201414,44.111125 47.7553,35.788217 49.911402,24.379446 50.101888,23.371515 50.25774,21.75328 50.25774,20.78337 l 0,-1.763474 2.031733,-2.051053 c 2.457681,-2.481053 2.58363,-2.877693 0.733681,-2.310521 -2.808759,0.861131 -3.166344,0.776002 -1.805984,-0.429948 0.820881,-0.727705 2.341353,-3.122589 2.122163,-3.342604 -0.07788,-0.07817 -0.777696,0.127455 -1.555156,0.45694 -1.930444,0.818117 -3.585715,1.293259 -3.878892,1.11343 -0.134006,-0.0822 -0.671898,-0.476692 -1.195313,-0.876656 C 44.679266,10.02774 41.77206,9.3986425 39.42314,10.00267 c -2.886704,0.742318 -5.109831,2.538345 -6.272117,5.067136 -0.479719,1.043729 -0.613455,1.725327 -0.68771,3.505011 l -0.09218,2.209317 -0.738926,0 c -1.134354,0 -4.162018,-0.625205 -5.892986,-1.216887 -3.615204,-1.235752 -6.665759,-3.135954 -9.613548,-5.988312 -1.080078,-1.045111 -2.062962,-1.838673 -2.184189,-1.76347 -0.519821,0.322474 -1.042254,2.54237 -1.017487,4.323439 0.03207,2.3063 0.603898,3.849202 2.132087,5.752791 0.630444,0.785315 1.090196,1.484123 1.02167,1.552907 -0.06853,0.06879 -0.761042,-0.08439 -1.538925,-0.340396 -0.777885,-0.256002 -1.500778,-0.411832 -1.60643,-0.346289 -0.32936,0.20432 0.0763,2.153981 0.755782,3.632386 0.802553,1.746183 2.403039,3.390651 4.121155,4.234406 0.712344,0.349826 1.295171,0.726051 1.295171,0.836055 0,0.110003 -0.660313,0.200005 -1.467362,0.200005 -1.739222,0 -1.842445,0.227889 -0.826678,1.825059 1.284953,2.020437 3.3732,3.546008 5.593486,4.086329 1.46583,0.35672 1.595093,0.519765 0.837848,1.056806 -2.456342,1.742054 -6.434581,3.008622 -9.578664,3.0496 -0.989802,0.01289 -1.850631,0.106274 -1.912954,0.207495 -0.06232,0.101218 0.678021,0.580658 1.64521,1.065421 2.637916,1.322145 5.174279,2.088431 8.643839,2.61148 1.223018,0.184375 4.278145,0.132998 6.208071,-0.104398 z"
         id="path3101"
         inkscape:connector-curvature="0"
         sodipodi:nodetypes="ssscssscscsssscsssssscssssssssscssss" />
    </g>
    <text
       xml:space="preserve"
       style="font-size:8px;font-style:normal;font-variant:normal;font-weight:normal;font-stretch:normal;line-height:125%;letter-spacing:0px;word-spacing:0px;fill:#ffffff;fill-opacity:1;stroke:none;font-family:Arial;-inkscape-font-specification:Arial"
       x="9.272728"
       y="55.818184"
       id="text3889"
       sodipodi:linespacing="125%"><tspan
         sodipodi:role="line"
         id="tspan3891"
         x="9.272728"
         y="55.818184"
         style="font-size:10px;font-weight:bold;-inkscape-font-specification:Arial Bold">Bootstrap</tspan></text>
  </g>
</svg>
