<?xml version="1.0"?>
<svg width="100" height="27" xmlns="http://www.w3.org/2000/svg">

 <g>
  <title>background</title>
  <rect fill="none" id="canvas_background" height="29" width="102" y="-1" x="-1"/>
 </g>
 <g>
  <title>Layer 1</title>
  <g stroke="null" id="svg_1">
   <path stroke="null" id="svg_2" d="m17.306046,14.444427c0,-0.294314 -0.178902,-0.588597 -0.409721,-0.704006l-6.688232,-3.872157c-0.115408,-0.057702 -0.236578,-0.115409 -0.351988,-0.115409l-0.057734,0c-0.115408,0 -0.236637,0.057707 -0.351987,0.115409l-6.757491,3.872157c-0.236638,0.115409 -0.409721,0.409692 -0.409721,0.704006l0,10.387277c0,0.11541 0.057674,0.294315 0.178904,0.352016s0.294254,0.057703 0.409722,0l3.993268,-2.290976c0.236639,-0.178907 0.409781,-0.409719 0.409781,-0.704035l0,-4.870474c0,-0.294313 0.178844,-0.53089 0.409663,-0.704004l1.702381,-0.998345c0.115408,-0.057706 0.294312,-0.115409 0.40972,-0.115409c0.115408,0 0.294313,0.057703 0.409721,0.115409l1.70238,0.998345c0.23658,0.115408 0.409721,0.409691 0.409721,0.704004l0,4.870474c0,0.294315 0.178845,0.530924 0.409721,0.704035l3.993328,2.290976c0.115408,0.057703 0.294313,0.057703 0.409662,0c0.115408,-0.057701 0.178902,-0.178905 0.178902,-0.352016l0,-10.387277z" fill="#FFFFFF"/>
   <path stroke="null" id="svg_3" d="m53.049809,0.060022c-0.115406,-0.057704 -0.294312,-0.057704 -0.409721,0s-0.178905,0.178904 -0.178905,0.352017l0,10.27184c0,0.115438 -0.057732,0.178903 -0.115406,0.236609c-0.057678,0.057702 -0.178905,0.057702 -0.294312,0l-1.702328,-0.940615c-0.236633,-0.115409 -0.588623,-0.115409 -0.819439,0l-6.688293,3.872128c-0.23658,0.115408 -0.409664,0.409719 -0.409664,0.704035l0,7.750046c0,0.294312 0.178844,0.53092 0.409664,0.704035l6.688293,3.872129c0.23658,0.115437 0.588627,0.115437 0.819439,0l6.68824,-3.872129c0.236572,-0.11541 0.409718,-0.409723 0.409718,-0.704035l0,-19.314546c0,-0.294312 -0.178902,-0.588597 -0.409718,-0.704034l-3.987568,-2.227479zm-0.646358,19.660801c0,0.057703 -0.057674,0.115408 -0.115353,0.178873l-2.291004,1.350363c-0.057674,0.057707 -0.11541,0.057707 -0.178902,0l-2.290951,-1.350363c-0.057671,-0.057705 -0.11541,-0.115408 -0.11541,-0.178873l0,-2.642994c0,-0.057707 0.057739,-0.11541 0.11541,-0.178905l2.290951,-1.350335c0.057728,-0.057702 0.115467,-0.057702 0.178902,0l2.291004,1.350335c0.057678,0.057734 0.115353,0.11544 0.115353,0.178905l0,2.642994z" fill="#FFFFFF"/>
   <path stroke="null" id="svg_4" d="m76.992493,16.96242c0.23658,-0.115408 0.40966,-0.409721 0.40966,-0.704033l0,-1.875463c0,-0.294313 -0.178902,-0.530922 -0.40966,-0.704033l-6.630562,-3.814426c-0.236641,-0.115437 -0.588623,-0.115437 -0.819435,0l-6.688301,3.872128c-0.23658,0.115409 -0.40966,0.409723 -0.40966,0.704034l0,7.750048c0,0.294312 0.178898,0.588625 0.40966,0.704033l6.630562,3.814425c0.236641,0.115408 0.530952,0.115408 0.819443,0l4.051064,-2.22748c0.11541,-0.057707 0.23658,-0.178905 0.23658,-0.352016c0,-0.115412 -0.057678,-0.294315 -0.178909,-0.35202l-6.751671,-3.872128c-0.115463,-0.057734 -0.178902,-0.236607 -0.178902,-0.352016l0,-2.417938c0,-0.11541 0.057678,-0.294312 0.178902,-0.352018l2.112045,-1.234925c0.115402,-0.057702 0.294312,-0.057702 0.409721,0l2.112045,1.234925c0.115463,0.057707 0.178902,0.236609 0.178902,0.352018l0,1.875494c0,0.115408 0.057732,0.294315 0.178909,0.351988s0.294312,0.057735 0.409706,0l3.929901,-2.400595z" fill="#FFFFFF"/>
   <path stroke="null" id="svg_5" d="m29.453352,9.80097c0.236635,-0.115408 0.588625,-0.115408 0.819445,0l6.69405,3.872157c0.236584,0.115409 0.409725,0.409719 0.409725,0.704002l0,7.750079c0,0.294283 -0.178909,0.530891 -0.409725,0.704002l-6.688232,3.872156c-0.236637,0.11541 -0.588627,0.11541 -0.819443,0l-6.693996,-3.872156c-0.236637,-0.11541 -0.409779,-0.409691 -0.409779,-0.704002l0,-7.750079c0,-0.294283 0.178904,-0.530891 0.409779,-0.704002l6.688177,-3.872157z" fill="#80BD01"/>
   <path stroke="null" id="svg_6" d="m90.022736,26.761074c-0.236641,0 -0.467453,-0.057707 -0.646355,-0.178905l-2.112053,-1.234926c-0.294304,-0.178873 -0.178902,-0.236576 -0.057724,-0.294283c0.409714,-0.115437 0.530884,-0.178902 0.940613,-0.409719c0.057724,0 0.115463,0 0.178902,0l1.644638,0.940611c0.057678,0.057705 0.115417,0.057705 0.178909,0l6.336243,-3.64131c0.057678,-0.057703 0.11541,-0.11541 0.11541,-0.178904l0,-7.207602c0,-0.057708 -0.057732,-0.11541 -0.11541,-0.178906l-6.336243,-3.641311c-0.057671,-0.057703 -0.11541,-0.057703 -0.178909,0l-6.336182,3.641311c-0.057732,0.057706 -0.115471,0.11544 -0.115471,0.178906l0,7.276857c0,0.057707 0.057739,0.11541 0.115471,0.178875l1.702316,0.998348c0.94062,0.467424 1.523483,-0.057707 1.523483,-0.646332l0,-7.219152c0,-0.115409 0.057732,-0.178877 0.178902,-0.178877l0.81945,0c0.115402,0 0.178902,0.057706 0.178902,0.178877l0,7.219152c0,1.234926 -0.704033,1.996666 -1.875534,1.996666c-0.351982,0 -0.646294,0 -1.465736,-0.409723l-1.644646,-0.940611c-0.409721,-0.236609 -0.646301,-0.704035 -0.646301,-1.171459l0,-7.282621c0,-0.467426 0.23658,-0.940615 0.646301,-1.171461l6.336189,-3.641311c0.409721,-0.236609 0.940666,-0.236609 1.350395,0l6.336182,3.641311c0.409782,0.236609 0.646355,0.704035 0.646355,1.171461l0,7.276857c0,0.467426 -0.236572,0.940615 -0.646355,1.171461l-6.336182,3.641312c-0.30584,0.057701 -0.478981,0.115408 -0.715561,0.115408z" fill="#80BD01"/>
   <path stroke="null" id="svg_7" d="m91.961632,21.775192c-2.758339,0 -3.346962,-1.292633 -3.346962,-2.348684c0,-0.115408 0.057732,-0.178902 0.178902,-0.178902l0.819382,0c0.115471,0 0.17897,0.057735 0.17897,0.178902c0.115341,0.819443 0.467392,1.234924 2.169708,1.234924c1.350395,0 1.875534,-0.29431 1.875534,-0.998316c0,-0.409719 -0.178909,-0.704033 -2.227516,-0.940641c-1.702385,-0.178873 -2.816078,-0.530891 -2.816078,-1.938961c0,-1.292627 1.056023,-2.054367 2.873817,-2.054367c1.996628,0 3.05265,0.704034 3.168053,2.22751c0,0.057707 0,0.11541 -0.057671,0.11541c-0.057732,0.057705 -0.057732,0.057705 -0.115402,0.057705l-0.819458,0c-0.057671,0 -0.178894,-0.057705 -0.178894,-0.115408c-0.178902,-0.88294 -0.646301,-1.171459 -1.996628,-1.171459c-1.465813,0 -1.644653,0.53089 -1.644653,0.882908c0,0.467424 0.178841,0.588625 2.169777,0.882935c1.938965,0.23658 2.873741,0.646301 2.873741,1.996668c0.005836,1.350332 -1.107925,2.169777 -3.104622,2.169777z" fill="#80BD01"/>
   <path stroke="null" id="svg_8" d="m69.830986,16.610403c0.057724,0 0.115395,0 0.178902,0l1.292656,0.761736c0.057739,0 0.057739,0.057707 0.057739,0.11541l0,1.465742c0,0.057735 -0.057739,0.115442 -0.057739,0.115442l-1.292656,0.761736c-0.057678,0 -0.11541,0 -0.178902,0l-1.292603,-0.761736c-0.057678,0 -0.057678,-0.057707 -0.057678,-0.115442l0,-1.465742c0,-0.057703 0.057678,-0.11541 0.057678,-0.11541l1.292603,-0.761736z" fill="#80BD01"/>
  </g>
 </g>
</svg>