<?xml version="1.0" encoding="UTF-8" standalone="no"?>
<!-- Created with Inkscape (http://www.inkscape.org/) -->

<svg
   xmlns:dc="http://purl.org/dc/elements/1.1/"
   xmlns:cc="http://creativecommons.org/ns#"
   xmlns:rdf="http://www.w3.org/1999/02/22-rdf-syntax-ns#"
   xmlns:svg="http://www.w3.org/2000/svg"
   xmlns="http://www.w3.org/2000/svg"
   xmlns:sodipodi="http://sodipodi.sourceforge.net/DTD/sodipodi-0.dtd"
   xmlns:inkscape="http://www.inkscape.org/namespaces/inkscape"
   width="64px"
   height="64px"
   id="svg2985"
   version="1.1"
   inkscape:version="0.48.5 r10040"
   sodipodi:docname="pandas-logo.svg">
  <defs
     id="defs2987" />
  <sodipodi:namedview
     id="base"
     pagecolor="#ffffff"
     bordercolor="#666666"
     borderopacity="1.0"
     inkscape:pageopacity="0.0"
     inkscape:pageshadow="2"
     inkscape:zoom="7.7781746"
     inkscape:cx="32.862757"
     inkscape:cy="37.785419"
     inkscape:current-layer="g3073"
     showgrid="true"
     inkscape:document-units="px"
     inkscape:grid-bbox="true"
     inkscape:window-width="1440"
     inkscape:window-height="852"
     inkscape:window-x="0"
     inkscape:window-y="0"
     inkscape:window-maximized="1" />
  <metadata
     id="metadata2990">
    <rdf:RDF>
      <cc:Work
         rdf:about="">
        <dc:format>image/svg+xml</dc:format>
        <dc:type
           rdf:resource="http://purl.org/dc/dcmitype/StillImage" />
        <dc:title></dc:title>
      </cc:Work>
    </rdf:RDF>
  </metadata>
  <g
     id="layer1"
     inkscape:label="Layer 1"
     inkscape:groupmode="layer">
    <g
       id="g3073"
       transform="translate(64,0)">
      <path
         style="fill:#ffffff;fill-opacity:1;stroke-width:0;stroke-miterlimit:4;stroke-dasharray:none"
         d="m -44.790414,62.100197 c -4.7537,-2.596013 -9.339036,-6.984729 -11.372656,-10.885001 -1.44327,-2.768048 -1.702377,-3.574911 -2.501813,-7.79074 -0.765333,-4.035978 -0.200563,-10.408461 1.49757,-16.897657 0.221096,-0.844887 0.559678,-2.146095 0.752413,-2.891584 0.637273,-2.464977 1.472357,-4.247 1.990205,-4.247 0.358985,0 0.480632,0.42918 0.40978,1.445783 -0.05541,0.795185 -0.129876,3.722912 -0.16546,6.506054 -0.07491,5.856474 0.355039,7.224627 3.193984,10.164055 1.575172,1.630935 5.442007,3.750762 6.842986,3.751382 0.355856,1.58e-4 1.178056,0.734144 1.827108,1.63109 1.254128,1.733107 4.497325,3.781651 5.996279,3.787515 1.515295,0.0056 1.441434,1.027123 -0.191717,2.650678 -4.868754,4.840158 -6.581988,9.665993 -4.477122,12.611141 1.927998,2.697672 0.917438,2.741341 -3.801557,0.164284 z m 21.696864,1.608364 c -0.113844,-0.175115 0.303752,-0.929409 0.927958,-1.676208 0.915721,-1.095585 1.134912,-1.704509 1.134912,-3.152868 0,-2.321865 -1.922623,-5.881227 -4.8226,-8.928098 -1.73668,-1.824653 -2.018746,-2.297885 -1.633039,-2.739763 0.256438,-0.293778 0.74467,-0.535664 1.084967,-0.53753 1.2492,-0.0065 4.575773,-2.182048 5.784588,-3.782458 0.679577,-0.899727 1.505974,-1.635989 1.836423,-1.636147 1.149729,-7.27e-4 5.383943,-2.156003 6.547496,-3.333051 0.644145,-0.651617 1.708035,-2.24199 2.3641985,-3.534164 1.067243,-2.101698 1.2065598,-2.757889 1.3213877,-6.223674 0.071731,-2.165229 -0.066209,-4.636607 -0.3127116,-5.602434 -0.8584456,-3.363461 -0.8867156,-3.716126 -0.2978724,-3.716126 0.7925564,0 1.6854185,1.086355 1.9309549,2.34941 0.1159239,0.596385 0.4967693,1.978922 0.8462997,3.0723 2.0458138,6.399603 2.8873721,14.305036 2.0733257,19.47648 -0.2695943,1.71269 -0.6357151,3.268497 -0.8136013,3.457352 -0.1778863,0.188853 -0.3234288,0.599971 -0.3234288,0.913583 0,0.700554 -1.9128693,4.249749 -3.3843492,6.27943 -2.1445822,2.958119 -6.2584322,6.186695 -10.8299712,8.499436 -2.323926,1.175683 -3.083152,1.355719 -3.434937,0.81453 z M -34.899161,45.604227 c -0.135008,-0.207701 -0.02075,-0.434847 0.253819,-0.504769 0.274609,-0.06992 1.135164,-0.321345 1.912351,-0.558704 1.007744,-0.307791 1.627564,-0.322433 2.160897,-0.05105 0.411323,0.209288 1.201024,0.380538 1.754912,0.380538 0.636155,0 0.94909,0.166399 0.849661,0.451808 -0.201274,0.57774 -6.570959,0.83704 -6.93164,0.282172 z m 1.28137,-2.769199 c -2.369978,-0.768076 -3.881052,-1.942072 -3.551298,-2.759107 0.391535,-0.970117 1.868137,-1.131353 3.923942,-0.428472 1.744804,0.596538 1.959615,0.598915 3.434059,0.038 1.976588,-0.751947 3.223766,-0.7603 3.864829,-0.02589 0.671698,0.769513 0.124768,1.560266 -1.771697,2.561542 -2.081741,1.099087 -3.83868,1.281917 -5.899835,0.613922 z M -44.10641,36.10515 c -1.965571,-2.051814 -2.221343,-4.703729 -0.663841,-6.882996 0.533804,-0.746902 1.456126,-2.387 2.049604,-3.644656 0.593486,-1.257658 1.368216,-2.392149 1.721631,-2.521093 1.258017,-0.458988 3.153796,-0.223337 4.140604,0.514682 0.897498,0.67123 1.001656,0.992032 1.001656,3.085021 0,2.67904 -0.237951,3.135429 -3.560318,6.828548 -2.311739,2.56972 -3.234977,3.433747 -3.669033,3.433747 -0.132675,0 -0.591815,-0.36596 -1.020303,-0.813253 z m 5.208407,-6.054245 c 0.935496,-0.307708 1.52494,-0.742638 -0.556855,-0.361444 -0.300748,0.05503 -0.739966,-0.325301 -0.963768,-0.722894 -0.572067,-1.016323 0.444642,-2.644813 1.553933,-2.204988 0.732508,0.29043 1.534463,1.220044 1.546164,1.555553 0.01688,0.484757 0.723982,-1.068695 0.589854,-1.488748 -0.115692,-0.362343 -1.553072,-0.831419 -2.092482,-0.994193 -1.031135,-0.311163 -2.660208,0.724112 -2.968471,1.891889 -0.178219,0.675135 -0.0112,1.153573 0.630468,1.802668 0.872901,0.883439 1.58342,0.745086 2.261157,0.522157 z m 15.58639,3.784287 c -2.918279,-3.12665 -3.756278,-4.504934 -2.414525,-3.971265 1.602019,0.637192 2.356332,0.603752 3.137627,-0.139091 1.052783,-1.000969 1.007813,-2.036975 -0.135587,-3.124111 -1.059951,-1.007783 -2.947942,-1.271272 -3.230422,-0.333383 -0.426544,1.416196 -0.07338,2.113961 0.118786,1.586001 0.712592,-1.957692 2.714198,-0.754078 2.714198,0.209607 0,0.963852 -0.174159,1.744799 -1.187919,1.744799 -0.961545,0 -1.957677,-0.164754 -2.626085,-1.182483 -0.463991,-0.84191 -0.544591,-1.399304 -0.557784,-2.150606 0,-2.027141 1.648865,-3.652703 3.705079,-3.652703 1.900615,0 2.354517,0.475948 4.706831,4.935389 1.899825,3.60163 2.153414,4.743897 1.446812,6.517035 -0.46984,1.179024 -1.822197,2.65049 -2.416912,2.629799 -0.224915,-0.0078 -1.691958,-1.388873 -3.260099,-3.068988 z m 8.183347,-15.440961 c -0.08591,-0.248494 -0.42943,-1.265064 -0.763374,-2.259047 -0.333943,-0.99398 -1.466929,-3.155943 -2.51775,-4.804361 -1.050815,-1.6484173 -1.856646,-3.2572218 -1.790735,-3.5751062 0.147738,-0.7125403 2.943594,-1.547392 5.207069,-1.5548469 3.162237,-0.010331 5.7472041,2.5539051 5.7472041,5.7013021 0,1.608241 -1.5498151,4.08996 -3.6479801,5.841512 -1.428628,1.192622 -1.990449,1.356197 -2.234434,0.650547 z m -38.695999,-1.662899 c -3.182044,-3.234449 -3.577477,-5.478729 -1.455952,-8.2632815 1.352862,-1.7756674 2.863128,-2.3994553 5.243081,-2.1655606 4.605519,0.4526039 5.43106,1.1547547 3.795028,3.227794 -1.358236,1.7210431 -3.72211,6.1704931 -4.021176,7.5689491 -0.398826,1.864918 -1.473579,1.753877 -3.560981,-0.367901 z m 7.560298,-11.8767409 c -0.592814,-0.5636393 -0.09998,-1.2879579 1.555468,-2.286156 2.252733,-1.3583347 3.578435,-1.74106504 8.091434,-2.33599056 6.342796,-0.8361391 14.179955,0.66521548 16.671644,3.19376686 1.562036,1.585147 0.604391,1.6880392 -2.892465,0.310774 l -3.324898,-1.3095396 -6.652725,-0.00217 c -6.957311,-0.00226 -8.136203,0.1931357 -11.756602,1.9492301 -0.800088,0.3880876 -1.561425,0.6041489 -1.691856,0.4801397 z"
         id="path3075"
         inkscape:connector-curvature="0"
         sodipodi:nodetypes="ssssssssssscssscsssscscsssssssssssscscssssssssssssssssssssssssssssscsssssssssccssscssssssssssssssscsssscssc" />
    </g>
  </g>
</svg>
