<?xml version="1.0" encoding="UTF-8" standalone="no"?>
<!-- Created with Inkscape (http://www.inkscape.org/) -->

<svg
   xmlns:dc="http://purl.org/dc/elements/1.1/"
   xmlns:cc="http://creativecommons.org/ns#"
   xmlns:rdf="http://www.w3.org/1999/02/22-rdf-syntax-ns#"
   xmlns:svg="http://www.w3.org/2000/svg"
   xmlns="http://www.w3.org/2000/svg"
   xmlns:sodipodi="http://sodipodi.sourceforge.net/DTD/sodipodi-0.dtd"
   xmlns:inkscape="http://www.inkscape.org/namespaces/inkscape"
   width="64px"
   height="64px"
   id="svg5429"
   version="1.1"
   inkscape:version="0.48.5 r10040"
   sodipodi:docname="scipy-logo.svg">
  <defs
     id="defs5431" />
  <sodipodi:namedview
     id="base"
     pagecolor="#ffffff"
     bordercolor="#666666"
     borderopacity="1.0"
     inkscape:pageopacity="0.0"
     inkscape:pageshadow="2"
     inkscape:zoom="5.5"
     inkscape:cx="24.727273"
     inkscape:cy="17.454545"
     inkscape:current-layer="layer1"
     showgrid="true"
     inkscape:document-units="px"
     inkscape:grid-bbox="true"
     inkscape:window-width="1440"
     inkscape:window-height="852"
     inkscape:window-x="0"
     inkscape:window-y="0"
     inkscape:window-maximized="1" />
  <metadata
     id="metadata5434">
    <rdf:RDF>
      <cc:Work
         rdf:about="">
        <dc:format>image/svg+xml</dc:format>
        <dc:type
           rdf:resource="http://purl.org/dc/dcmitype/StillImage" />
        <dc:title></dc:title>
      </cc:Work>
    </rdf:RDF>
  </metadata>
  <g
     id="layer1"
     inkscape:label="Layer 1"
     inkscape:groupmode="layer">
    <path
       style="fill:#a800e0;fill-opacity:1"
       d="M 30.671166,58.855153 C 23.559782,58.119498 16.395456,54.694682 11.818502,49.842866 10.72311,48.681694 9.8268815,47.613363 9.8268815,47.468796 c 0,-0.144568 2.1774835,-1.882916 4.8388525,-3.862994 3.219386,-2.395249 5.094268,-3.600985 5.602022,-3.602652 0.909462,-0.0029 1.504989,0.607298 4.527543,4.639734 2.581496,3.44401 3.586613,4.377182 5.875867,5.455282 1.388686,0.653986 2.045349,0.770232 4.317746,0.764357 2.261029,-0.0059 2.944156,-0.129688 4.3699,-0.792204 2.361249,-1.097231 4.232868,-2.927554 5.382267,-5.263511 0.880317,-1.789093 0.96647,-2.209388 0.953571,-4.652018 -0.01827,-3.458189 -0.74527,-5.221539 -3.003818,-7.285723 -1.833468,-1.675689 -3.302511,-2.295365 -8.519011,-3.593524 -4.359523,-1.084898 -6.499129,-1.894665 -7.321873,-2.771087 -1.694692,-1.805259 -2.347513,-5.543869 -1.375758,-7.878768 1.214154,-2.917321 4.345788,-4.745413 7.620512,-4.44847 2.769246,0.251105 3.960329,1.149376 7.294943,5.501585 1.599354,2.087417 3.383452,4.242047 3.964662,4.78807 2.421864,2.275237 4.866186,2.711211 7.729021,1.378558 l 1.61009,-0.7495 0.642418,0.603521 c 0.353331,0.331936 0.776168,0.603521 0.939634,0.603521 0.4907,0 4.875471,-4.184013 4.875471,-4.652245 0,-0.238516 -0.280069,-0.982647 -0.622377,-1.653625 l -0.622378,-1.21996 -3.016752,0.207775 c -1.659211,0.114277 -3.194085,0.354952 -3.410829,0.534833 -0.244448,0.202873 -0.326743,0.633644 -0.216733,1.134513 0.159517,0.72627 0.05545,0.856228 -1.035001,1.292541 -1.532764,0.61329 -2.961488,0.618675 -3.824188,0.0144 -0.369586,-0.258868 -2.05458,-2.304838 -3.744426,-4.546597 -3.964198,-5.258931 -5.581264,-6.480726 -9.54782,-7.213985 -3.348131,-0.618935 -7.480086,0.820507 -9.998219,3.483061 -3.780365,3.997179 -4.298054,9.185696 -1.38837,13.91483 1.61543,2.625573 3.641138,3.608255 11.11873,5.393764 4.273324,1.020391 6.185538,2.121409 7.232513,4.164361 1.771978,3.457639 0.228022,7.74736 -3.322192,9.230369 -2.154697,0.900067 -5.613779,0.436341 -7.185788,-0.963332 -0.314879,-0.280358 -1.742046,-2.050735 -3.171476,-3.934164 -1.429429,-1.883431 -2.856594,-3.653808 -3.171476,-3.93417 -1.509485,-1.344005 -4.309485,-1.804835 -6.143572,-1.01112 -0.527013,0.228069 -3.035192,1.967288 -5.573726,3.864931 C 9.9683242,42.3068 7.7824378,43.862186 7.6493341,43.865569 7.5162302,43.868992 7.0285724,43.034231 6.565649,42.010628 2.3746106,32.743508 3.3441846,22.82311 9.2834604,14.202787 14.906903,6.0408681 26.003962,1.0173298 35.882237,2.1617621 45.912558,3.3238094 54.516242,8.938379 58.821585,17.131461 c 0.585229,1.113694 1.117441,2.0249 1.182692,2.0249 0.733252,0 1.664062,-0.882095 2.079953,-1.971093 0.273996,-0.71744 0.598756,-1.304438 0.721691,-1.304438 0.508075,0 0.545961,0.40356 0.1311,1.396462 -0.494611,1.183776 -0.434657,1.305113 0.865064,1.750695 1.043103,0.357607 1.453848,1.028859 0.616971,1.008268 -0.300256,-0.0073 -0.947919,-0.18945 -1.439248,-0.404588 -0.744697,-0.326078 -1.02957,-0.322572 -1.712208,0.02108 -0.974072,0.49036 -0.970832,0.45761 -0.25193,2.547136 1.63164,4.742449 1.622188,11.535179 -0.0231,16.609663 -3.540559,10.919886 -12.914475,18.500703 -24.655844,19.939524 -2.470756,0.302775 -3.565969,0.32328 -5.665545,0.106084 z"
       id="path5590"
       inkscape:connector-curvature="0" />
  </g>
</svg>
