<?xml version="1.0" encoding="UTF-8" standalone="no"?>
<!-- Created with Inkscape (http://www.inkscape.org/) -->

<svg
   xmlns:dc="http://purl.org/dc/elements/1.1/"
   xmlns:cc="http://creativecommons.org/ns#"
   xmlns:rdf="http://www.w3.org/1999/02/22-rdf-syntax-ns#"
   xmlns:svg="http://www.w3.org/2000/svg"
   xmlns="http://www.w3.org/2000/svg"
   xmlns:sodipodi="http://sodipodi.sourceforge.net/DTD/sodipodi-0.dtd"
   xmlns:inkscape="http://www.inkscape.org/namespaces/inkscape"
   width="64px"
   height="64px"
   id="svg2985"
   version="1.1"
   inkscape:version="0.48.5 r10040"
   sodipodi:docname="sklearn-logo.svg">
  <defs
     id="defs2987" />
  <sodipodi:namedview
     id="base"
     pagecolor="#ffffff"
     bordercolor="#666666"
     borderopacity="1.0"
     inkscape:pageopacity="0.0"
     inkscape:pageshadow="2"
     inkscape:zoom="7.7781746"
     inkscape:cx="35.995174"
     inkscape:cy="28.105208"
     inkscape:current-layer="layer1"
     showgrid="true"
     inkscape:document-units="px"
     inkscape:grid-bbox="true"
     inkscape:window-width="1440"
     inkscape:window-height="852"
     inkscape:window-x="0"
     inkscape:window-y="0"
     inkscape:window-maximized="1" />
  <metadata
     id="metadata2990">
    <rdf:RDF>
      <cc:Work
         rdf:about="">
        <dc:format>image/svg+xml</dc:format>
        <dc:type
           rdf:resource="http://purl.org/dc/dcmitype/StillImage" />
        <dc:title></dc:title>
      </cc:Work>
    </rdf:RDF>
  </metadata>
  <g
     id="layer1"
     inkscape:label="Layer 1"
     inkscape:groupmode="layer">
    <path
       style="fill:#f0973d"
       d="m 29.880669,48.376855 c -0.905487,-0.141663 -2.346036,-0.467877 -3.201219,-0.724918 -2.074692,-0.623592 -2.892918,-1.412336 -3.536702,-3.409265 -0.851791,-2.642145 -0.945221,-3.355556 -0.940399,-7.18067 0.0042,-3.373446 0.04261,-3.800604 0.500482,-5.573203 0.899277,-3.481452 2.11579,-5.761697 4.231597,-7.931752 3.232246,-3.31512 7.770724,-5.659273 12.170239,-6.286007 1.800556,-0.256498 4.55948,-0.136541 6.141856,0.267046 3.407386,0.86906 6.473125,3.250315 7.927548,6.157579 0.961972,1.922897 1.298693,3.202275 1.430611,5.435644 0.174071,5.952921 -2.610673,11.127671 -6.556269,14.970297 -2.226116,2.020748 -4.976256,3.33723 -8.564121,4.099616 -1.944468,0.41318 -7.442583,0.51373 -9.603659,0.175633 z"
       id="path3127"
       inkscape:connector-curvature="0"
       sodipodi:nodetypes="csscsssssccscc" />
    <g
       id="g3129"
       transform="translate(-72,0)">
      <path
         style="fill:#349acd"
         d="M 84.198825,48.325418 C 80.567242,47.892101 77.690211,46.0693 75.858916,43.0415 c -1.238017,-2.046895 -1.570165,-3.222351 -1.578448,-5.586055 -0.0068,-1.938506 0.02417,-2.113977 0.571693,-3.239931 1.031924,-2.122092 2.591423,-3.382309 4.915325,-3.972026 5.129608,-1.301699 11.400255,2.461679 12.779269,7.669579 0.938967,3.546041 0.281119,8.593863 -1.239288,9.509338 -1.235438,0.743886 -4.726053,1.187301 -7.108642,0.903013 z"
         id="path3131"
         inkscape:connector-curvature="0"
         sodipodi:nodetypes="ssssssss" />
    </g>
    <path
       style="fill:#000000;stroke-width:0.20000000000000001;stroke-miterlimit:4;stroke-dasharray:none;stroke:#ffffff;stroke-opacity:1;stroke-linejoin:round"
       d="m 28.115399,43.877326 c -0.742186,-0.568773 -0.933807,-1.264081 -0.826162,-2.997763 0.105501,-1.699159 0.833085,-4.182824 1.87046,-6.38496 0.58984,-1.252115 0.611627,-1.273306 1.763939,-1.715797 1.161568,-0.446045 1.168136,-0.446459 1.486844,-0.09367 0.440336,0.487423 0.414066,1.836293 -0.06265,3.216527 -0.404491,1.17113 -1.643802,3.132715 -2.436894,3.857126 -0.389014,0.355325 -0.47302,0.593576 -0.47302,1.341535 0,1.720958 0.839183,2.147305 2.209323,1.122449 0.884947,-0.661935 1.004495,-0.836636 1.261712,-1.84382 0.227228,-0.889747 1.031309,-2.003931 1.925996,-2.668774 0.966035,-0.717864 2.387596,-0.815438 3.106232,-0.213206 0.363023,0.304221 0.521127,0.603219 0.521127,0.985525 0,1.036502 -0.84546,1.836298 -2.621951,2.480336 -1.051767,0.381302 -1.000141,0.316682 -0.740637,0.927055 0.265533,0.62455 1.079822,1.001983 1.78808,0.828799 0.902623,-0.220713 1.951928,-1.216756 2.188096,-2.077033 0.67174,-2.446909 3.940176,-4.403864 5.290701,-3.167772 l 0.460826,0.421778 0.71039,-0.398326 c 0.390716,-0.219078 0.868618,-0.398324 1.062004,-0.398324 0.331354,0 0.315611,0.1206 -0.273265,2.09324 -0.621128,2.080677 -0.721822,3.249213 -0.291845,3.386792 0.240318,0.07689 2.154528,-1.596787 2.457905,-2.149059 0.133639,-0.243278 0.105251,-0.41331 -0.107188,-0.64201 -0.369675,-0.397971 -0.366665,-0.960726 0.0093,-1.732548 0.349232,-0.717006 0.807578,-1.000062 1.494347,-0.922848 0.470515,0.0529 0.492807,0.100029 0.468834,0.991185 -0.01385,0.514604 0.01462,0.935644 0.06324,0.935644 0.331763,0 1.183408,-0.700831 1.54363,-1.270274 0.289675,-0.457926 0.565127,-0.682102 0.84208,-0.685328 0.226372,-0.0026 0.411585,0.02864 0.411585,0.0695 0,0.04086 -0.329268,0.969806 -0.731707,2.064317 -0.781142,2.124463 -0.888851,2.859 -0.46901,3.198466 0.556586,0.450036 1.957452,-0.887849 2.276596,-2.174243 0.115582,-0.465885 0.377316,-1.28235 0.581628,-1.814368 0.3125,-0.813732 0.457272,-0.983417 0.911863,-1.068778 0.297212,-0.05581 0.785722,-0.147598 1.085576,-0.203973 l 0.545189,-0.102502 -0.249958,0.592601 c -0.137477,0.32593 -0.311336,0.872317 -0.386353,1.214196 l -0.136395,0.621597 1.210403,-1.103124 c 1.378778,-1.256578 2.252588,-1.568622 2.869483,-1.02471 0.504238,0.444583 0.446338,1.134811 -0.267737,3.191721 -0.338422,0.974836 -0.574099,1.877063 -0.523729,2.004951 0.165825,0.421009 0.66712,0.243729 1.463203,-0.517456 l 0.784372,-0.749978 0,0.559829 c 0,0.444017 -0.163745,0.690551 -0.791543,1.191742 -2.056015,1.641379 -3.598701,1.495176 -3.598701,-0.341059 0,-0.441272 0.241805,-1.482212 0.537344,-2.313199 0.351153,-0.987359 0.470833,-1.550934 0.345393,-1.626464 -0.105574,-0.06357 -0.682086,0.361939 -1.281141,0.945572 -1.162191,1.132273 -1.418242,1.722185 -1.4265,3.286474 -0.0043,0.805751 -0.02092,0.829725 -0.657598,0.946092 -0.359279,0.06567 -0.762377,0.160197 -0.895772,0.210069 -0.172768,0.06459 -0.278883,-0.166773 -0.368874,-0.804245 l -0.126335,-0.894919 -0.874151,0.673187 c -1.08908,0.838707 -1.879556,1.165762 -2.469144,1.021595 -0.988685,-0.241756 -1.175126,-1.781797 -0.396516,-3.275312 l 0.490255,-0.940397 -0.508603,0.120755 c -0.279731,0.06642 -0.562944,0.208902 -0.629361,0.316636 -0.726271,1.178057 -3.382665,3.60404 -4.152446,3.79227 -0.803186,0.196398 -1.374319,-0.145368 -1.648585,-0.986516 l -0.251058,-0.769968 -0.755039,0.707747 c -1.429089,1.339573 -2.309431,1.470253 -3.205603,0.475845 -0.31225,-0.346478 -0.56773,-0.752838 -0.56773,-0.90302 0,-0.189975 -0.240835,-0.08079 -0.791542,0.358857 -1.011501,0.807512 -1.920095,1.174301 -2.90685,1.173461 -0.938559,-7.13e-4 -1.780903,-0.460623 -2.149208,-1.173227 -0.147581,-0.285546 -0.283547,-0.544711 -0.302145,-0.57592 -0.0186,-0.03121 -0.432911,0.241113 -0.920695,0.605162 -1.59332,1.189149 -2.891546,1.463074 -3.764275,0.794256 z M 42.570273,42.18233 c 0.961493,-0.788215 1.766334,-3.199436 1.331912,-3.990265 -0.114865,-0.209103 -0.359358,-0.380185 -0.543318,-0.380185 -1.203999,0 -2.795085,3.685281 -1.947573,4.510977 0.406526,0.39606 0.521426,0.382129 1.158979,-0.140527 z m -6.205776,-2.470234 c 0.370352,-0.434759 0.463979,-1.44072 0.157182,-1.688785 -0.589045,-0.476279 -1.451269,0.492795 -1.686359,1.895337 l -0.129088,0.770137 0.716495,-0.356121 c 0.394074,-0.195865 0.81787,-0.475121 0.94177,-0.620568 z m -5.291905,-2.841299 c 0.667079,-1.280145 1.052362,-2.928183 0.752788,-3.220045 -0.154813,-0.150827 -0.251918,-0.134659 -0.382041,0.06361 -0.290678,0.442909 -0.921401,2.161176 -1.20969,3.29554 -0.149466,0.588119 -0.312492,1.229703 -0.362283,1.425743 -0.147294,0.579956 0.571563,-0.356507 1.201226,-1.564846 z"
       id="path3087"
       inkscape:connector-curvature="0" />
    <text
       xml:space="preserve"
       style="font-size:8px;font-style:normal;font-variant:normal;font-weight:500;font-stretch:normal;line-height:125%;letter-spacing:0px;word-spacing:0px;fill:#000000;fill-opacity:1;stroke:none;font-family:Cursor;-inkscape-font-specification:Cursor Medium"
       x="35.488495"
       y="34.445488"
       id="text3147"
       sodipodi:linespacing="125%"><tspan
         sodipodi:role="line"
         id="tspan3149"
         x="35.488495"
         y="34.445488"
         style="font-size:5px;font-style:normal;font-variant:normal;font-weight:normal;font-stretch:normal;font-family:Arial;-inkscape-font-specification:Arial;fill:#ffffff;fill-opacity:1">scikit</tspan></text>
  </g>
</svg>
